# xmcd
#
# Track frame offsets: 
#        150
#        12163
#        24275
#        35606
#        48208
#        59903
#        71998
#        83033
#        95415
#        108583
#        121674
#        132588
#        144614
#        157172
#        169220
#        182359
#        196946
#        209321
#
# Disc length: 2950 seconds
#
# Revision: 1
# Processed by: cddbd v1.5.2PL0 Copyright (c) Steve Scherf et al.
# Submitted via: ExactAudioCopy v0.99pb4
#
DISCID=010b8412
DTITLE=The Platters - All-Time Greatest Hits
DYEAR=2004
DGENRE=R&B
TTITLE0=Only You (And You Alone)
TTITLE1=The Great Pretender
TTITLE2=(You've Got) The Magic Touch
TTITLE3=My Prayer
TTITLE4=Heaven On Earth
TTITLE5=You'll Never Never Know
TTITLE6=It Isn't Right
TTITLE7=On My Word Of Honor
TTITLE8=One In A Million
TTITLE9=I'm Sorry
TTITLE10=He's Mine
TTITLE11=My Dream
TTITLE12=Twilight Time
TTITLE13=Smoke Gets In Your Eyes
TTITLE14=Enchanted
TTITLE15=Harbor Lights
TTITLE16=I Love You 1000 Times
TTITLE17=With This Ring
EXTD=
EXTT0=
EXTT1=
EXTT2=
EXTT3=
EXTT4=
EXTT5=
EXTT6=
EXTT7=
EXTT8=
EXTT9=
EXTT10=
EXTT11=
EXTT12=
EXTT13=
EXTT14=
EXTT15=
EXTT16=
EXTT17=
PLAYORDER=
